<mxfile host="app.diagrams.net" modified="2021-11-15T08:09:37.155Z" agent="5.0 (Windows NT 10.0; Win64; x64) AppleWebKit/537.36 (KHTML, like Gecko) Chrome/95.0.4638.69 Safari/537.36" etag="81LeZkBXVBnSnCBdYrf7" version="15.7.3" type="github">
  <diagram id="iV2YR8Z_cwBg-CsnLPMW" name="Page-1">
    <mxGraphModel dx="1865" dy="585" grid="1" gridSize="10" guides="1" tooltips="1" connect="1" arrows="1" fold="1" page="1" pageScale="1" pageWidth="827" pageHeight="1169" math="0" shadow="0">
      <root>
        <mxCell id="0" />
        <mxCell id="1" parent="0" />
        <mxCell id="_aBAqejh4AYmnuItgvHd-1" style="edgeStyle=orthogonalEdgeStyle;rounded=0;orthogonalLoop=1;jettySize=auto;html=1;exitX=0.5;exitY=1;exitDx=0;exitDy=0;entryX=0.5;entryY=0;entryDx=0;entryDy=0;" edge="1" parent="1" source="_aBAqejh4AYmnuItgvHd-2" target="_aBAqejh4AYmnuItgvHd-4">
          <mxGeometry relative="1" as="geometry" />
        </mxCell>
        <mxCell id="_aBAqejh4AYmnuItgvHd-2" value="Start" style="ellipse;whiteSpace=wrap;html=1;" vertex="1" parent="1">
          <mxGeometry x="280" y="180" width="120" height="70" as="geometry" />
        </mxCell>
        <mxCell id="_aBAqejh4AYmnuItgvHd-3" value="" style="edgeStyle=orthogonalEdgeStyle;rounded=0;orthogonalLoop=1;jettySize=auto;html=1;" edge="1" parent="1" source="_aBAqejh4AYmnuItgvHd-4" target="_aBAqejh4AYmnuItgvHd-6">
          <mxGeometry relative="1" as="geometry" />
        </mxCell>
        <mxCell id="_aBAqejh4AYmnuItgvHd-4" value="Introducting&lt;br&gt;variables" style="whiteSpace=wrap;html=1;" vertex="1" parent="1">
          <mxGeometry x="280" y="300" width="120" height="60" as="geometry" />
        </mxCell>
        <mxCell id="_aBAqejh4AYmnuItgvHd-5" style="edgeStyle=orthogonalEdgeStyle;rounded=0;orthogonalLoop=1;jettySize=auto;html=1;exitX=0.5;exitY=1;exitDx=0;exitDy=0;entryX=0.5;entryY=0;entryDx=0;entryDy=0;" edge="1" parent="1" source="_aBAqejh4AYmnuItgvHd-6" target="_aBAqejh4AYmnuItgvHd-29">
          <mxGeometry relative="1" as="geometry">
            <Array as="points">
              <mxPoint x="340" y="468" />
              <mxPoint x="80" y="468" />
            </Array>
          </mxGeometry>
        </mxCell>
        <mxCell id="_aBAqejh4AYmnuItgvHd-6" value="Enter variant&lt;br&gt;(1-5)" style="whiteSpace=wrap;html=1;" vertex="1" parent="1">
          <mxGeometry x="280" y="390" width="120" height="60" as="geometry" />
        </mxCell>
        <mxCell id="_aBAqejh4AYmnuItgvHd-7" style="edgeStyle=orthogonalEdgeStyle;rounded=0;orthogonalLoop=1;jettySize=auto;html=1;exitX=0.5;exitY=1;exitDx=0;exitDy=0;entryX=0.5;entryY=0;entryDx=0;entryDy=0;" edge="1" parent="1" source="_aBAqejh4AYmnuItgvHd-9" target="_aBAqejh4AYmnuItgvHd-60">
          <mxGeometry relative="1" as="geometry">
            <mxPoint x="210" y="620" as="targetPoint" />
            <Array as="points">
              <mxPoint x="218" y="565" />
            </Array>
          </mxGeometry>
        </mxCell>
        <mxCell id="_aBAqejh4AYmnuItgvHd-8" style="edgeStyle=orthogonalEdgeStyle;rounded=0;orthogonalLoop=1;jettySize=auto;html=1;exitX=1;exitY=0.5;exitDx=0;exitDy=0;entryX=0;entryY=0.5;entryDx=0;entryDy=0;" edge="1" parent="1" source="_aBAqejh4AYmnuItgvHd-9" target="_aBAqejh4AYmnuItgvHd-35">
          <mxGeometry relative="1" as="geometry" />
        </mxCell>
        <mxCell id="_aBAqejh4AYmnuItgvHd-9" value="&lt;font style=&quot;vertical-align: inherit&quot;&gt;&lt;font style=&quot;vertical-align: inherit&quot;&gt;Var=2&lt;/font&gt;&lt;/font&gt;" style="rhombus;whiteSpace=wrap;html=1;" vertex="1" parent="1">
          <mxGeometry x="174" y="490" width="80" height="75" as="geometry" />
        </mxCell>
        <mxCell id="_aBAqejh4AYmnuItgvHd-26" value="Finish" style="ellipse;whiteSpace=wrap;html=1;rounded=0;" vertex="1" parent="1">
          <mxGeometry x="377.5" y="2210" width="120" height="80" as="geometry" />
        </mxCell>
        <mxCell id="_aBAqejh4AYmnuItgvHd-27" style="edgeStyle=orthogonalEdgeStyle;rounded=0;orthogonalLoop=1;jettySize=auto;html=1;exitX=0;exitY=0.5;exitDx=0;exitDy=0;entryX=0.5;entryY=0;entryDx=0;entryDy=0;" edge="1" parent="1" source="_aBAqejh4AYmnuItgvHd-29" target="_aBAqejh4AYmnuItgvHd-94">
          <mxGeometry relative="1" as="geometry">
            <mxPoint x="80" y="620" as="targetPoint" />
          </mxGeometry>
        </mxCell>
        <mxCell id="_aBAqejh4AYmnuItgvHd-28" style="edgeStyle=orthogonalEdgeStyle;rounded=0;orthogonalLoop=1;jettySize=auto;html=1;exitX=1;exitY=0.5;exitDx=0;exitDy=0;" edge="1" parent="1" source="_aBAqejh4AYmnuItgvHd-29" target="_aBAqejh4AYmnuItgvHd-9">
          <mxGeometry relative="1" as="geometry" />
        </mxCell>
        <mxCell id="_aBAqejh4AYmnuItgvHd-29" value="&lt;font style=&quot;vertical-align: inherit&quot;&gt;&lt;font style=&quot;vertical-align: inherit&quot;&gt;&lt;font style=&quot;vertical-align: inherit&quot;&gt;&lt;font style=&quot;vertical-align: inherit&quot;&gt;Var=1&lt;/font&gt;&lt;/font&gt;&lt;/font&gt;&lt;/font&gt;" style="rhombus;whiteSpace=wrap;html=1;" vertex="1" parent="1">
          <mxGeometry x="40" y="487.5" width="80" height="80" as="geometry" />
        </mxCell>
        <mxCell id="_aBAqejh4AYmnuItgvHd-30" style="edgeStyle=orthogonalEdgeStyle;rounded=0;orthogonalLoop=1;jettySize=auto;html=1;exitX=1;exitY=0.5;exitDx=0;exitDy=0;" edge="1" parent="1" source="_aBAqejh4AYmnuItgvHd-32" target="_aBAqejh4AYmnuItgvHd-38">
          <mxGeometry relative="1" as="geometry" />
        </mxCell>
        <mxCell id="_aBAqejh4AYmnuItgvHd-166" style="edgeStyle=orthogonalEdgeStyle;rounded=0;orthogonalLoop=1;jettySize=auto;html=1;exitX=0.5;exitY=1;exitDx=0;exitDy=0;entryX=0.5;entryY=0;entryDx=0;entryDy=0;" edge="1" parent="1" source="_aBAqejh4AYmnuItgvHd-32" target="_aBAqejh4AYmnuItgvHd-58">
          <mxGeometry relative="1" as="geometry" />
        </mxCell>
        <mxCell id="_aBAqejh4AYmnuItgvHd-32" value="&lt;font style=&quot;vertical-align: inherit&quot;&gt;&lt;font style=&quot;vertical-align: inherit&quot;&gt;&lt;font style=&quot;vertical-align: inherit&quot;&gt;&lt;font style=&quot;vertical-align: inherit&quot;&gt;Var=4&lt;/font&gt;&lt;/font&gt;&lt;/font&gt;&lt;/font&gt;" style="rhombus;whiteSpace=wrap;html=1;" vertex="1" parent="1">
          <mxGeometry x="530" y="485" width="80" height="80" as="geometry" />
        </mxCell>
        <mxCell id="_aBAqejh4AYmnuItgvHd-33" style="edgeStyle=orthogonalEdgeStyle;rounded=0;orthogonalLoop=1;jettySize=auto;html=1;exitX=1;exitY=0.5;exitDx=0;exitDy=0;entryX=0;entryY=0.5;entryDx=0;entryDy=0;" edge="1" parent="1" source="_aBAqejh4AYmnuItgvHd-35" target="_aBAqejh4AYmnuItgvHd-32">
          <mxGeometry relative="1" as="geometry">
            <Array as="points">
              <mxPoint x="422" y="525" />
            </Array>
          </mxGeometry>
        </mxCell>
        <mxCell id="_aBAqejh4AYmnuItgvHd-34" style="edgeStyle=orthogonalEdgeStyle;rounded=0;orthogonalLoop=1;jettySize=auto;html=1;exitX=0.5;exitY=1;exitDx=0;exitDy=0;entryX=0.5;entryY=0;entryDx=0;entryDy=0;" edge="1" parent="1" source="_aBAqejh4AYmnuItgvHd-35" target="_aBAqejh4AYmnuItgvHd-62">
          <mxGeometry relative="1" as="geometry">
            <mxPoint x="340" y="620" as="targetPoint" />
          </mxGeometry>
        </mxCell>
        <mxCell id="_aBAqejh4AYmnuItgvHd-35" value="&lt;font style=&quot;vertical-align: inherit&quot;&gt;&lt;font style=&quot;vertical-align: inherit&quot;&gt;&lt;font style=&quot;vertical-align: inherit&quot;&gt;&lt;font style=&quot;vertical-align: inherit&quot;&gt;Var=3&lt;/font&gt;&lt;/font&gt;&lt;/font&gt;&lt;/font&gt;" style="rhombus;whiteSpace=wrap;html=1;" vertex="1" parent="1">
          <mxGeometry x="342.5" y="487.5" width="80" height="80" as="geometry" />
        </mxCell>
        <mxCell id="_aBAqejh4AYmnuItgvHd-164" style="edgeStyle=orthogonalEdgeStyle;rounded=0;orthogonalLoop=1;jettySize=auto;html=1;exitX=1;exitY=0.5;exitDx=0;exitDy=0;entryX=0.75;entryY=1;entryDx=0;entryDy=0;" edge="1" parent="1" source="_aBAqejh4AYmnuItgvHd-38" target="_aBAqejh4AYmnuItgvHd-6">
          <mxGeometry relative="1" as="geometry">
            <Array as="points">
              <mxPoint x="819" y="528" />
              <mxPoint x="850" y="528" />
              <mxPoint x="850" y="468" />
              <mxPoint x="370" y="468" />
            </Array>
          </mxGeometry>
        </mxCell>
        <mxCell id="_aBAqejh4AYmnuItgvHd-167" style="edgeStyle=orthogonalEdgeStyle;rounded=0;orthogonalLoop=1;jettySize=auto;html=1;exitX=0.5;exitY=1;exitDx=0;exitDy=0;entryX=0.5;entryY=0;entryDx=0;entryDy=0;" edge="1" parent="1" source="_aBAqejh4AYmnuItgvHd-38" target="_aBAqejh4AYmnuItgvHd-56">
          <mxGeometry relative="1" as="geometry">
            <Array as="points">
              <mxPoint x="780" y="565" />
            </Array>
          </mxGeometry>
        </mxCell>
        <mxCell id="_aBAqejh4AYmnuItgvHd-38" value="&lt;font style=&quot;vertical-align: inherit&quot;&gt;&lt;font style=&quot;vertical-align: inherit&quot;&gt;&lt;font style=&quot;vertical-align: inherit&quot;&gt;&lt;font style=&quot;vertical-align: inherit&quot;&gt;Var=5&lt;/font&gt;&lt;/font&gt;&lt;/font&gt;&lt;/font&gt;" style="rhombus;whiteSpace=wrap;html=1;" vertex="1" parent="1">
          <mxGeometry x="738.5" y="485" width="80" height="80" as="geometry" />
        </mxCell>
        <mxCell id="_aBAqejh4AYmnuItgvHd-39" value="YES" style="text;html=1;align=center;verticalAlign=middle;resizable=0;points=[];autosize=1;strokeColor=none;fillColor=none;" vertex="1" parent="1">
          <mxGeometry x="10" y="500" width="40" height="20" as="geometry" />
        </mxCell>
        <mxCell id="_aBAqejh4AYmnuItgvHd-40" value="NO" style="text;html=1;align=center;verticalAlign=middle;resizable=0;points=[];autosize=1;strokeColor=none;fillColor=none;" vertex="1" parent="1">
          <mxGeometry x="114" y="500" width="30" height="20" as="geometry" />
        </mxCell>
        <mxCell id="_aBAqejh4AYmnuItgvHd-41" value="NO" style="text;html=1;align=center;verticalAlign=middle;resizable=0;points=[];autosize=1;strokeColor=none;fillColor=none;" vertex="1" parent="1">
          <mxGeometry x="250" y="500" width="30" height="20" as="geometry" />
        </mxCell>
        <mxCell id="_aBAqejh4AYmnuItgvHd-42" value="NO" style="text;html=1;align=center;verticalAlign=middle;resizable=0;points=[];autosize=1;strokeColor=none;fillColor=none;" vertex="1" parent="1">
          <mxGeometry x="422.5" y="500" width="30" height="20" as="geometry" />
        </mxCell>
        <mxCell id="_aBAqejh4AYmnuItgvHd-43" value="NO" style="text;html=1;align=center;verticalAlign=middle;resizable=0;points=[];autosize=1;strokeColor=none;fillColor=none;" vertex="1" parent="1">
          <mxGeometry x="610" y="500" width="30" height="20" as="geometry" />
        </mxCell>
        <mxCell id="_aBAqejh4AYmnuItgvHd-44" value="NO" style="text;html=1;align=center;verticalAlign=middle;resizable=0;points=[];autosize=1;strokeColor=none;fillColor=none;" vertex="1" parent="1">
          <mxGeometry x="817" y="500" width="30" height="20" as="geometry" />
        </mxCell>
        <mxCell id="_aBAqejh4AYmnuItgvHd-45" value="YES" style="text;html=1;align=center;verticalAlign=middle;resizable=0;points=[];autosize=1;strokeColor=none;fillColor=none;" vertex="1" parent="1">
          <mxGeometry x="161.25" y="567.5" width="40" height="20" as="geometry" />
        </mxCell>
        <mxCell id="_aBAqejh4AYmnuItgvHd-46" value="YES" style="text;html=1;align=center;verticalAlign=middle;resizable=0;points=[];autosize=1;strokeColor=none;fillColor=none;" vertex="1" parent="1">
          <mxGeometry x="338.5" y="585" width="40" height="20" as="geometry" />
        </mxCell>
        <mxCell id="_aBAqejh4AYmnuItgvHd-47" value="YES" style="text;html=1;align=center;verticalAlign=middle;resizable=0;points=[];autosize=1;strokeColor=none;fillColor=none;" vertex="1" parent="1">
          <mxGeometry x="530" y="575" width="40" height="20" as="geometry" />
        </mxCell>
        <mxCell id="_aBAqejh4AYmnuItgvHd-48" value="YES" style="text;html=1;align=center;verticalAlign=middle;resizable=0;points=[];autosize=1;strokeColor=none;fillColor=none;" vertex="1" parent="1">
          <mxGeometry x="738.5" y="575" width="40" height="20" as="geometry" />
        </mxCell>
        <mxCell id="_aBAqejh4AYmnuItgvHd-49" value="" style="whiteSpace=wrap;html=1;" vertex="1" parent="1">
          <mxGeometry x="159" y="640" width="120" height="80" as="geometry" />
        </mxCell>
        <mxCell id="_aBAqejh4AYmnuItgvHd-50" value="" style="edgeStyle=orthogonalEdgeStyle;rounded=0;orthogonalLoop=1;jettySize=auto;html=1;startArrow=none;" edge="1" parent="1" source="_aBAqejh4AYmnuItgvHd-94" target="_aBAqejh4AYmnuItgvHd-64">
          <mxGeometry relative="1" as="geometry" />
        </mxCell>
        <mxCell id="_aBAqejh4AYmnuItgvHd-51" value="" style="rounded=0;whiteSpace=wrap;html=1;" vertex="1" parent="1">
          <mxGeometry x="-39.92999999999999" y="640" width="120" height="80" as="geometry" />
        </mxCell>
        <mxCell id="_aBAqejh4AYmnuItgvHd-52" value="" style="whiteSpace=wrap;html=1;" vertex="1" parent="1">
          <mxGeometry x="510" y="640" width="120" height="80" as="geometry" />
        </mxCell>
        <mxCell id="_aBAqejh4AYmnuItgvHd-53" value="" style="rounded=0;whiteSpace=wrap;html=1;" vertex="1" parent="1">
          <mxGeometry x="720" y="640" width="120" height="80" as="geometry" />
        </mxCell>
        <mxCell id="_aBAqejh4AYmnuItgvHd-54" value="" style="rounded=0;whiteSpace=wrap;html=1;" vertex="1" parent="1">
          <mxGeometry x="320" y="640" width="120" height="80" as="geometry" />
        </mxCell>
        <mxCell id="_aBAqejh4AYmnuItgvHd-55" style="edgeStyle=orthogonalEdgeStyle;rounded=0;orthogonalLoop=1;jettySize=auto;html=1;exitX=0.5;exitY=1;exitDx=0;exitDy=0;" edge="1" parent="1" source="_aBAqejh4AYmnuItgvHd-56" target="_aBAqejh4AYmnuItgvHd-72">
          <mxGeometry relative="1" as="geometry" />
        </mxCell>
        <mxCell id="_aBAqejh4AYmnuItgvHd-56" value="5.Demo version (y=sqrt(x))" style="rounded=0;whiteSpace=wrap;html=1;" vertex="1" parent="1">
          <mxGeometry x="730" y="640" width="100" height="80" as="geometry" />
        </mxCell>
        <mxCell id="_aBAqejh4AYmnuItgvHd-57" style="edgeStyle=orthogonalEdgeStyle;rounded=0;orthogonalLoop=1;jettySize=auto;html=1;exitX=0.5;exitY=1;exitDx=0;exitDy=0;entryX=0.5;entryY=0;entryDx=0;entryDy=0;" edge="1" parent="1" source="_aBAqejh4AYmnuItgvHd-58" target="_aBAqejh4AYmnuItgvHd-70">
          <mxGeometry relative="1" as="geometry" />
        </mxCell>
        <mxCell id="_aBAqejh4AYmnuItgvHd-58" value="4.Usual" style="rounded=0;whiteSpace=wrap;html=1;" vertex="1" parent="1">
          <mxGeometry x="520" y="640" width="100" height="80" as="geometry" />
        </mxCell>
        <mxCell id="_aBAqejh4AYmnuItgvHd-59" style="edgeStyle=orthogonalEdgeStyle;rounded=0;orthogonalLoop=1;jettySize=auto;html=1;exitX=0.5;exitY=1;exitDx=0;exitDy=0;entryX=0.5;entryY=0;entryDx=0;entryDy=0;" edge="1" parent="1" source="_aBAqejh4AYmnuItgvHd-60" target="_aBAqejh4AYmnuItgvHd-66">
          <mxGeometry relative="1" as="geometry" />
        </mxCell>
        <mxCell id="_aBAqejh4AYmnuItgvHd-60" value="2.Trapezium" style="rounded=0;whiteSpace=wrap;html=1;" vertex="1" parent="1">
          <mxGeometry x="170.25" y="640" width="94.75" height="80" as="geometry" />
        </mxCell>
        <mxCell id="_aBAqejh4AYmnuItgvHd-61" style="edgeStyle=orthogonalEdgeStyle;rounded=0;orthogonalLoop=1;jettySize=auto;html=1;exitX=0.5;exitY=1;exitDx=0;exitDy=0;entryX=0.5;entryY=0;entryDx=0;entryDy=0;" edge="1" parent="1" source="_aBAqejh4AYmnuItgvHd-62" target="_aBAqejh4AYmnuItgvHd-68">
          <mxGeometry relative="1" as="geometry" />
        </mxCell>
        <mxCell id="_aBAqejh4AYmnuItgvHd-62" value="3.Simpson" style="rounded=0;whiteSpace=wrap;html=1;" vertex="1" parent="1">
          <mxGeometry x="335" y="640" width="95" height="80" as="geometry" />
        </mxCell>
        <mxCell id="_aBAqejh4AYmnuItgvHd-63" style="edgeStyle=orthogonalEdgeStyle;rounded=0;orthogonalLoop=1;jettySize=auto;html=1;exitX=0.5;exitY=1;exitDx=0;exitDy=0;" edge="1" parent="1" source="_aBAqejh4AYmnuItgvHd-64" target="_aBAqejh4AYmnuItgvHd-74">
          <mxGeometry relative="1" as="geometry" />
        </mxCell>
        <mxCell id="_aBAqejh4AYmnuItgvHd-64" value="Enter z,c" style="whiteSpace=wrap;html=1;rounded=0;" vertex="1" parent="1">
          <mxGeometry x="-39.92999999999999" y="750" width="120" height="40" as="geometry" />
        </mxCell>
        <mxCell id="_aBAqejh4AYmnuItgvHd-65" style="edgeStyle=orthogonalEdgeStyle;rounded=0;orthogonalLoop=1;jettySize=auto;html=1;exitX=0.5;exitY=1;exitDx=0;exitDy=0;entryX=0.5;entryY=0;entryDx=0;entryDy=0;" edge="1" parent="1" source="_aBAqejh4AYmnuItgvHd-66" target="_aBAqejh4AYmnuItgvHd-76">
          <mxGeometry relative="1" as="geometry" />
        </mxCell>
        <mxCell id="_aBAqejh4AYmnuItgvHd-66" value="Enter z,c" style="whiteSpace=wrap;html=1;rounded=0;" vertex="1" parent="1">
          <mxGeometry x="159" y="750" width="120" height="40" as="geometry" />
        </mxCell>
        <mxCell id="_aBAqejh4AYmnuItgvHd-67" style="edgeStyle=orthogonalEdgeStyle;rounded=0;orthogonalLoop=1;jettySize=auto;html=1;exitX=0.5;exitY=1;exitDx=0;exitDy=0;entryX=0.5;entryY=0;entryDx=0;entryDy=0;" edge="1" parent="1" source="_aBAqejh4AYmnuItgvHd-68" target="_aBAqejh4AYmnuItgvHd-77">
          <mxGeometry relative="1" as="geometry" />
        </mxCell>
        <mxCell id="_aBAqejh4AYmnuItgvHd-68" value="Enter z,c" style="whiteSpace=wrap;html=1;rounded=0;" vertex="1" parent="1">
          <mxGeometry x="322.5" y="760" width="120" height="40" as="geometry" />
        </mxCell>
        <mxCell id="_aBAqejh4AYmnuItgvHd-69" style="edgeStyle=orthogonalEdgeStyle;rounded=0;orthogonalLoop=1;jettySize=auto;html=1;exitX=0.5;exitY=1;exitDx=0;exitDy=0;entryX=0.5;entryY=0;entryDx=0;entryDy=0;" edge="1" parent="1" source="_aBAqejh4AYmnuItgvHd-70" target="_aBAqejh4AYmnuItgvHd-79">
          <mxGeometry relative="1" as="geometry" />
        </mxCell>
        <mxCell id="_aBAqejh4AYmnuItgvHd-70" value="Enter z,c" style="whiteSpace=wrap;html=1;rounded=0;" vertex="1" parent="1">
          <mxGeometry x="510" y="750" width="120" height="40" as="geometry" />
        </mxCell>
        <mxCell id="_aBAqejh4AYmnuItgvHd-71" style="edgeStyle=orthogonalEdgeStyle;rounded=0;orthogonalLoop=1;jettySize=auto;html=1;exitX=0.5;exitY=1;exitDx=0;exitDy=0;entryX=0.5;entryY=0;entryDx=0;entryDy=0;" edge="1" parent="1" source="_aBAqejh4AYmnuItgvHd-72" target="_aBAqejh4AYmnuItgvHd-81">
          <mxGeometry relative="1" as="geometry" />
        </mxCell>
        <mxCell id="_aBAqejh4AYmnuItgvHd-72" value="Enter z,c" style="whiteSpace=wrap;html=1;rounded=0;" vertex="1" parent="1">
          <mxGeometry x="720" y="740" width="120" height="40" as="geometry" />
        </mxCell>
        <mxCell id="_aBAqejh4AYmnuItgvHd-73" style="edgeStyle=orthogonalEdgeStyle;rounded=0;orthogonalLoop=1;jettySize=auto;html=1;exitX=0.5;exitY=1;exitDx=0;exitDy=0;entryX=0.5;entryY=0;entryDx=0;entryDy=0;" edge="1" parent="1" source="_aBAqejh4AYmnuItgvHd-74" target="_aBAqejh4AYmnuItgvHd-83">
          <mxGeometry relative="1" as="geometry" />
        </mxCell>
        <mxCell id="_aBAqejh4AYmnuItgvHd-74" value="h=(b-a)/n" style="whiteSpace=wrap;html=1;rounded=0;" vertex="1" parent="1">
          <mxGeometry x="-39.92999999999999" y="810" width="120" height="40" as="geometry" />
        </mxCell>
        <mxCell id="_aBAqejh4AYmnuItgvHd-75" style="edgeStyle=orthogonalEdgeStyle;rounded=0;orthogonalLoop=1;jettySize=auto;html=1;exitX=0.5;exitY=1;exitDx=0;exitDy=0;entryX=0.5;entryY=0;entryDx=0;entryDy=0;" edge="1" parent="1" source="_aBAqejh4AYmnuItgvHd-76" target="_aBAqejh4AYmnuItgvHd-89">
          <mxGeometry relative="1" as="geometry" />
        </mxCell>
        <mxCell id="_aBAqejh4AYmnuItgvHd-76" value="h=(b-a)/n" style="whiteSpace=wrap;html=1;rounded=0;" vertex="1" parent="1">
          <mxGeometry x="159" y="810" width="120" height="40" as="geometry" />
        </mxCell>
        <mxCell id="_aBAqejh4AYmnuItgvHd-77" value="&lt;span&gt;h=(b-a)/n&lt;/span&gt;" style="whiteSpace=wrap;html=1;rounded=0;" vertex="1" parent="1">
          <mxGeometry x="324" y="820" width="120" height="40" as="geometry" />
        </mxCell>
        <mxCell id="_aBAqejh4AYmnuItgvHd-78" style="edgeStyle=orthogonalEdgeStyle;rounded=0;orthogonalLoop=1;jettySize=auto;html=1;exitX=0.5;exitY=1;exitDx=0;exitDy=0;" edge="1" parent="1" source="_aBAqejh4AYmnuItgvHd-79" target="_aBAqejh4AYmnuItgvHd-114">
          <mxGeometry relative="1" as="geometry" />
        </mxCell>
        <mxCell id="_aBAqejh4AYmnuItgvHd-79" value="h=(b-a)/n" style="whiteSpace=wrap;html=1;rounded=0;" vertex="1" parent="1">
          <mxGeometry x="510" y="820" width="120" height="40" as="geometry" />
        </mxCell>
        <mxCell id="_aBAqejh4AYmnuItgvHd-80" style="edgeStyle=orthogonalEdgeStyle;rounded=0;orthogonalLoop=1;jettySize=auto;html=1;exitX=0.5;exitY=1;exitDx=0;exitDy=0;entryX=0.5;entryY=0;entryDx=0;entryDy=0;" edge="1" parent="1" source="_aBAqejh4AYmnuItgvHd-81" target="_aBAqejh4AYmnuItgvHd-121">
          <mxGeometry relative="1" as="geometry" />
        </mxCell>
        <mxCell id="_aBAqejh4AYmnuItgvHd-81" value="Enter n" style="whiteSpace=wrap;html=1;rounded=0;" vertex="1" parent="1">
          <mxGeometry x="720" y="800" width="120" height="40" as="geometry" />
        </mxCell>
        <mxCell id="_aBAqejh4AYmnuItgvHd-82" style="edgeStyle=orthogonalEdgeStyle;rounded=0;orthogonalLoop=1;jettySize=auto;html=1;exitX=1;exitY=0.5;exitDx=0;exitDy=0;entryX=1;entryY=0.5;entryDx=0;entryDy=0;" edge="1" parent="1" source="_aBAqejh4AYmnuItgvHd-83" target="_aBAqejh4AYmnuItgvHd-93">
          <mxGeometry relative="1" as="geometry">
            <Array as="points">
              <mxPoint x="100.07" y="905" />
              <mxPoint x="100.07" y="1020" />
            </Array>
          </mxGeometry>
        </mxCell>
        <mxCell id="_aBAqejh4AYmnuItgvHd-83" value="x = a; x &amp;lt;= b ;x = x + h" style="shape=hexagon;perimeter=hexagonPerimeter2;whiteSpace=wrap;html=1;fixedSize=1;rounded=0;" vertex="1" parent="1">
          <mxGeometry x="-49.92999999999999" y="880" width="140" height="50" as="geometry" />
        </mxCell>
        <mxCell id="_aBAqejh4AYmnuItgvHd-84" style="edgeStyle=orthogonalEdgeStyle;rounded=0;orthogonalLoop=1;jettySize=auto;html=1;exitX=1;exitY=0.5;exitDx=0;exitDy=0;entryX=1;entryY=0.5;entryDx=0;entryDy=0;" edge="1" parent="1" source="_aBAqejh4AYmnuItgvHd-85" target="_aBAqejh4AYmnuItgvHd-111">
          <mxGeometry relative="1" as="geometry">
            <Array as="points">
              <mxPoint x="470" y="900" />
              <mxPoint x="470" y="1255" />
            </Array>
          </mxGeometry>
        </mxCell>
        <mxCell id="_aBAqejh4AYmnuItgvHd-85" value="i = 0; i &amp;lt;= n; i++" style="shape=hexagon;perimeter=hexagonPerimeter2;whiteSpace=wrap;html=1;fixedSize=1;rounded=0;" vertex="1" parent="1">
          <mxGeometry x="324" y="880" width="120" height="40" as="geometry" />
        </mxCell>
        <mxCell id="_aBAqejh4AYmnuItgvHd-86" style="edgeStyle=orthogonalEdgeStyle;rounded=0;orthogonalLoop=1;jettySize=auto;html=1;exitX=1;exitY=0.5;exitDx=0;exitDy=0;entryX=1;entryY=0.5;entryDx=0;entryDy=0;" edge="1" parent="1" target="_aBAqejh4AYmnuItgvHd-100">
          <mxGeometry relative="1" as="geometry">
            <Array as="points">
              <mxPoint x="299" y="965" />
              <mxPoint x="299" y="1090" />
            </Array>
            <mxPoint x="289" y="964.9999999999998" as="sourcePoint" />
          </mxGeometry>
        </mxCell>
        <mxCell id="_aBAqejh4AYmnuItgvHd-87" value="x = a; x &amp;lt;= b ;x = x + h" style="shape=hexagon;perimeter=hexagonPerimeter2;whiteSpace=wrap;html=1;fixedSize=1;rounded=0;" vertex="1" parent="1">
          <mxGeometry x="149" y="935" width="140" height="50" as="geometry" />
        </mxCell>
        <mxCell id="_aBAqejh4AYmnuItgvHd-88" style="edgeStyle=orthogonalEdgeStyle;rounded=0;orthogonalLoop=1;jettySize=auto;html=1;exitX=0.5;exitY=1;exitDx=0;exitDy=0;entryX=0.5;entryY=0;entryDx=0;entryDy=0;" edge="1" parent="1" source="_aBAqejh4AYmnuItgvHd-89">
          <mxGeometry relative="1" as="geometry">
            <mxPoint x="219" y="939.9999999999998" as="targetPoint" />
          </mxGeometry>
        </mxCell>
        <mxCell id="_aBAqejh4AYmnuItgvHd-89" value="S=iva(a)+iva(b)" style="rounded=0;whiteSpace=wrap;html=1;" vertex="1" parent="1">
          <mxGeometry x="159" y="880" width="120" height="40" as="geometry" />
        </mxCell>
        <mxCell id="_aBAqejh4AYmnuItgvHd-90" style="edgeStyle=orthogonalEdgeStyle;rounded=0;orthogonalLoop=1;jettySize=auto;html=1;exitX=0.5;exitY=1;exitDx=0;exitDy=0;entryX=0;entryY=0.5;entryDx=0;entryDy=0;" edge="1" parent="1" source="_aBAqejh4AYmnuItgvHd-91" target="_aBAqejh4AYmnuItgvHd-83">
          <mxGeometry relative="1" as="geometry">
            <Array as="points">
              <mxPoint x="15.070000000000007" y="990" />
              <mxPoint x="-69.92999999999999" y="990" />
              <mxPoint x="-69.92999999999999" y="905" />
            </Array>
          </mxGeometry>
        </mxCell>
        <mxCell id="_aBAqejh4AYmnuItgvHd-91" value="S=S+iva(x)" style="rounded=0;whiteSpace=wrap;html=1;" vertex="1" parent="1">
          <mxGeometry x="-39.92999999999999" y="940" width="120" height="40" as="geometry" />
        </mxCell>
        <mxCell id="_aBAqejh4AYmnuItgvHd-92" style="edgeStyle=orthogonalEdgeStyle;rounded=0;orthogonalLoop=1;jettySize=auto;html=1;exitX=0.5;exitY=1;exitDx=0;exitDy=0;entryX=0.5;entryY=0;entryDx=0;entryDy=0;" edge="1" parent="1" source="_aBAqejh4AYmnuItgvHd-93" target="_aBAqejh4AYmnuItgvHd-96">
          <mxGeometry relative="1" as="geometry" />
        </mxCell>
        <mxCell id="_aBAqejh4AYmnuItgvHd-93" value="&amp;nbsp; S=S*h" style="rounded=0;whiteSpace=wrap;html=1;" vertex="1" parent="1">
          <mxGeometry x="-39.92999999999999" y="1000" width="120" height="40" as="geometry" />
        </mxCell>
        <mxCell id="_aBAqejh4AYmnuItgvHd-94" value="1.Rectangies" style="rounded=0;whiteSpace=wrap;html=1;" vertex="1" parent="1">
          <mxGeometry x="-29.929999999999993" y="640" width="100" height="80" as="geometry" />
        </mxCell>
        <mxCell id="_aBAqejh4AYmnuItgvHd-95" value="" style="edgeStyle=orthogonalEdgeStyle;rounded=0;orthogonalLoop=1;jettySize=auto;html=1;endArrow=none;" edge="1" parent="1" source="_aBAqejh4AYmnuItgvHd-51" target="_aBAqejh4AYmnuItgvHd-94">
          <mxGeometry relative="1" as="geometry">
            <mxPoint x="20.070000000000007" y="-370" as="sourcePoint" />
            <mxPoint x="20.070000000000007" y="750" as="targetPoint" />
            <Array as="points">
              <mxPoint x="20.070000000000007" y="690" />
              <mxPoint x="20.070000000000007" y="690" />
            </Array>
          </mxGeometry>
        </mxCell>
        <mxCell id="_aBAqejh4AYmnuItgvHd-172" style="edgeStyle=orthogonalEdgeStyle;rounded=0;orthogonalLoop=1;jettySize=auto;html=1;exitX=0.5;exitY=1;exitDx=0;exitDy=0;entryX=0.5;entryY=0;entryDx=0;entryDy=0;" edge="1" parent="1" source="_aBAqejh4AYmnuItgvHd-96" target="_aBAqejh4AYmnuItgvHd-26">
          <mxGeometry relative="1" as="geometry">
            <Array as="points">
              <mxPoint x="20" y="2160" />
              <mxPoint x="439" y="2160" />
              <mxPoint x="439" y="2210" />
            </Array>
          </mxGeometry>
        </mxCell>
        <mxCell id="_aBAqejh4AYmnuItgvHd-96" value="return S" style="rounded=0;whiteSpace=wrap;html=1;" vertex="1" parent="1">
          <mxGeometry x="-39.92999999999999" y="1070" width="120" height="40" as="geometry" />
        </mxCell>
        <mxCell id="_aBAqejh4AYmnuItgvHd-97" style="edgeStyle=orthogonalEdgeStyle;rounded=0;orthogonalLoop=1;jettySize=auto;html=1;exitX=0;exitY=0.5;exitDx=0;exitDy=0;entryX=0;entryY=0.5;entryDx=0;entryDy=0;" edge="1" parent="1" source="_aBAqejh4AYmnuItgvHd-98" target="_aBAqejh4AYmnuItgvHd-87">
          <mxGeometry relative="1" as="geometry" />
        </mxCell>
        <mxCell id="_aBAqejh4AYmnuItgvHd-98" value="S=S+iva(x)" style="rounded=0;whiteSpace=wrap;html=1;" vertex="1" parent="1">
          <mxGeometry x="159" y="1010" width="120" height="40" as="geometry" />
        </mxCell>
        <mxCell id="_aBAqejh4AYmnuItgvHd-99" style="edgeStyle=orthogonalEdgeStyle;rounded=0;orthogonalLoop=1;jettySize=auto;html=1;exitX=0.5;exitY=1;exitDx=0;exitDy=0;entryX=0.5;entryY=0;entryDx=0;entryDy=0;" edge="1" parent="1" source="_aBAqejh4AYmnuItgvHd-100" target="_aBAqejh4AYmnuItgvHd-101">
          <mxGeometry relative="1" as="geometry" />
        </mxCell>
        <mxCell id="_aBAqejh4AYmnuItgvHd-100" value="&amp;nbsp; S=S*h" style="rounded=0;whiteSpace=wrap;html=1;" vertex="1" parent="1">
          <mxGeometry x="159" y="1070" width="120" height="40" as="geometry" />
        </mxCell>
        <mxCell id="_aBAqejh4AYmnuItgvHd-171" style="edgeStyle=orthogonalEdgeStyle;rounded=0;orthogonalLoop=1;jettySize=auto;html=1;exitX=0.5;exitY=1;exitDx=0;exitDy=0;entryX=0.5;entryY=0;entryDx=0;entryDy=0;" edge="1" parent="1" source="_aBAqejh4AYmnuItgvHd-101" target="_aBAqejh4AYmnuItgvHd-26">
          <mxGeometry relative="1" as="geometry">
            <Array as="points">
              <mxPoint x="219" y="2160" />
              <mxPoint x="437" y="2160" />
            </Array>
          </mxGeometry>
        </mxCell>
        <mxCell id="_aBAqejh4AYmnuItgvHd-101" value="return S" style="rounded=0;whiteSpace=wrap;html=1;" vertex="1" parent="1">
          <mxGeometry x="159" y="1140" width="120" height="40" as="geometry" />
        </mxCell>
        <mxCell id="_aBAqejh4AYmnuItgvHd-102" style="edgeStyle=orthogonalEdgeStyle;rounded=0;orthogonalLoop=1;jettySize=auto;html=1;exitX=0.5;exitY=1;exitDx=0;exitDy=0;entryX=0.5;entryY=0;entryDx=0;entryDy=0;" edge="1" parent="1" source="_aBAqejh4AYmnuItgvHd-103" target="_aBAqejh4AYmnuItgvHd-105">
          <mxGeometry relative="1" as="geometry" />
        </mxCell>
        <mxCell id="_aBAqejh4AYmnuItgvHd-103" value="&amp;nbsp;if(i%2 != 0)" style="rhombus;whiteSpace=wrap;html=1;rounded=0;" vertex="1" parent="1">
          <mxGeometry x="338.5" y="930" width="96" height="60" as="geometry" />
        </mxCell>
        <mxCell id="_aBAqejh4AYmnuItgvHd-104" style="edgeStyle=orthogonalEdgeStyle;rounded=0;orthogonalLoop=1;jettySize=auto;html=1;exitX=0.5;exitY=1;exitDx=0;exitDy=0;entryX=0.5;entryY=0;entryDx=0;entryDy=0;" edge="1" parent="1" source="_aBAqejh4AYmnuItgvHd-105" target="_aBAqejh4AYmnuItgvHd-107">
          <mxGeometry relative="1" as="geometry" />
        </mxCell>
        <mxCell id="_aBAqejh4AYmnuItgvHd-105" value="S=S+iva(a+h*i)" style="rounded=0;whiteSpace=wrap;html=1;" vertex="1" parent="1">
          <mxGeometry x="329" y="1010" width="115" height="40" as="geometry" />
        </mxCell>
        <mxCell id="_aBAqejh4AYmnuItgvHd-106" style="edgeStyle=orthogonalEdgeStyle;rounded=0;orthogonalLoop=1;jettySize=auto;html=1;exitX=0.5;exitY=1;exitDx=0;exitDy=0;entryX=0.5;entryY=0;entryDx=0;entryDy=0;" edge="1" parent="1" source="_aBAqejh4AYmnuItgvHd-107" target="_aBAqejh4AYmnuItgvHd-109">
          <mxGeometry relative="1" as="geometry" />
        </mxCell>
        <mxCell id="_aBAqejh4AYmnuItgvHd-107" value="if(i%2 == 0)" style="rhombus;whiteSpace=wrap;html=1;rounded=0;" vertex="1" parent="1">
          <mxGeometry x="338.5" y="1070" width="96" height="60" as="geometry" />
        </mxCell>
        <mxCell id="_aBAqejh4AYmnuItgvHd-108" style="edgeStyle=orthogonalEdgeStyle;rounded=0;orthogonalLoop=1;jettySize=auto;html=1;exitX=0.5;exitY=1;exitDx=0;exitDy=0;entryX=0;entryY=0.5;entryDx=0;entryDy=0;" edge="1" parent="1" source="_aBAqejh4AYmnuItgvHd-109" target="_aBAqejh4AYmnuItgvHd-85">
          <mxGeometry relative="1" as="geometry">
            <Array as="points">
              <mxPoint x="387" y="1195" />
              <mxPoint x="310" y="1195" />
              <mxPoint x="310" y="895" />
            </Array>
          </mxGeometry>
        </mxCell>
        <mxCell id="_aBAqejh4AYmnuItgvHd-109" value="SS=SS+iva(a+h*i)" style="rounded=0;whiteSpace=wrap;html=1;" vertex="1" parent="1">
          <mxGeometry x="329" y="1150" width="115" height="40" as="geometry" />
        </mxCell>
        <mxCell id="_aBAqejh4AYmnuItgvHd-110" style="edgeStyle=orthogonalEdgeStyle;rounded=0;orthogonalLoop=1;jettySize=auto;html=1;exitX=0.5;exitY=1;exitDx=0;exitDy=0;entryX=0.5;entryY=0;entryDx=0;entryDy=0;" edge="1" parent="1" source="_aBAqejh4AYmnuItgvHd-111" target="_aBAqejh4AYmnuItgvHd-112">
          <mxGeometry relative="1" as="geometry" />
        </mxCell>
        <mxCell id="_aBAqejh4AYmnuItgvHd-111" value="&amp;nbsp;S=((b-a)/(3*n))*(iva(a)+4*S+2*SS+iva(b))" style="rounded=0;whiteSpace=wrap;html=1;" vertex="1" parent="1">
          <mxGeometry x="320" y="1220" width="141" height="70" as="geometry" />
        </mxCell>
        <mxCell id="_aBAqejh4AYmnuItgvHd-170" style="edgeStyle=orthogonalEdgeStyle;rounded=0;orthogonalLoop=1;jettySize=auto;html=1;exitX=0.5;exitY=1;exitDx=0;exitDy=0;entryX=0.5;entryY=0;entryDx=0;entryDy=0;" edge="1" parent="1" source="_aBAqejh4AYmnuItgvHd-112" target="_aBAqejh4AYmnuItgvHd-26">
          <mxGeometry relative="1" as="geometry">
            <Array as="points">
              <mxPoint x="387" y="2160" />
              <mxPoint x="439" y="2160" />
              <mxPoint x="439" y="2210" />
            </Array>
          </mxGeometry>
        </mxCell>
        <mxCell id="_aBAqejh4AYmnuItgvHd-112" value="return S" style="rounded=0;whiteSpace=wrap;html=1;" vertex="1" parent="1">
          <mxGeometry x="326.5" y="1310" width="120" height="40" as="geometry" />
        </mxCell>
        <mxCell id="_aBAqejh4AYmnuItgvHd-113" value="" style="edgeStyle=orthogonalEdgeStyle;rounded=0;orthogonalLoop=1;jettySize=auto;html=1;" edge="1" parent="1" source="_aBAqejh4AYmnuItgvHd-114" target="_aBAqejh4AYmnuItgvHd-116">
          <mxGeometry relative="1" as="geometry" />
        </mxCell>
        <mxCell id="_aBAqejh4AYmnuItgvHd-114" value="S=(pow(a,3)/3)*((pow(e,2)-1)/2)" style="rounded=0;whiteSpace=wrap;html=1;" vertex="1" parent="1">
          <mxGeometry x="510" y="890" width="120" height="40" as="geometry" />
        </mxCell>
        <mxCell id="_aBAqejh4AYmnuItgvHd-115" style="edgeStyle=orthogonalEdgeStyle;rounded=0;orthogonalLoop=1;jettySize=auto;html=1;exitX=0.5;exitY=1;exitDx=0;exitDy=0;" edge="1" parent="1" source="_aBAqejh4AYmnuItgvHd-116" target="_aBAqejh4AYmnuItgvHd-118">
          <mxGeometry relative="1" as="geometry" />
        </mxCell>
        <mxCell id="_aBAqejh4AYmnuItgvHd-116" value="SS=(pow(b,3)/3)*((pow(e,2)-1)/2" style="rounded=0;whiteSpace=wrap;html=1;" vertex="1" parent="1">
          <mxGeometry x="510" y="960" width="120" height="40" as="geometry" />
        </mxCell>
        <mxCell id="_aBAqejh4AYmnuItgvHd-117" style="edgeStyle=orthogonalEdgeStyle;rounded=0;orthogonalLoop=1;jettySize=auto;html=1;exitX=0.5;exitY=1;exitDx=0;exitDy=0;entryX=0.5;entryY=0;entryDx=0;entryDy=0;" edge="1" parent="1" source="_aBAqejh4AYmnuItgvHd-118" target="_aBAqejh4AYmnuItgvHd-119">
          <mxGeometry relative="1" as="geometry" />
        </mxCell>
        <mxCell id="_aBAqejh4AYmnuItgvHd-118" value="S=S+iva(a+h*i)" style="rounded=0;whiteSpace=wrap;html=1;" vertex="1" parent="1">
          <mxGeometry x="510" y="1030" width="120" height="40" as="geometry" />
        </mxCell>
        <mxCell id="_aBAqejh4AYmnuItgvHd-169" style="edgeStyle=orthogonalEdgeStyle;rounded=0;orthogonalLoop=1;jettySize=auto;html=1;exitX=0.5;exitY=1;exitDx=0;exitDy=0;entryX=0.5;entryY=0;entryDx=0;entryDy=0;" edge="1" parent="1" source="_aBAqejh4AYmnuItgvHd-119" target="_aBAqejh4AYmnuItgvHd-26">
          <mxGeometry relative="1" as="geometry">
            <Array as="points">
              <mxPoint x="570" y="2160" />
              <mxPoint x="437" y="2160" />
            </Array>
          </mxGeometry>
        </mxCell>
        <mxCell id="_aBAqejh4AYmnuItgvHd-119" value="printf(S)" style="rounded=0;whiteSpace=wrap;html=1;" vertex="1" parent="1">
          <mxGeometry x="510" y="1100" width="120" height="40" as="geometry" />
        </mxCell>
        <mxCell id="_aBAqejh4AYmnuItgvHd-120" style="edgeStyle=orthogonalEdgeStyle;rounded=0;orthogonalLoop=1;jettySize=auto;html=1;exitX=0.5;exitY=1;exitDx=0;exitDy=0;" edge="1" parent="1" source="_aBAqejh4AYmnuItgvHd-121" target="_aBAqejh4AYmnuItgvHd-123">
          <mxGeometry relative="1" as="geometry" />
        </mxCell>
        <mxCell id="_aBAqejh4AYmnuItgvHd-121" value="h = ((b-a)/n)" style="rounded=0;whiteSpace=wrap;html=1;" vertex="1" parent="1">
          <mxGeometry x="720" y="870" width="120" height="40" as="geometry" />
        </mxCell>
        <mxCell id="_aBAqejh4AYmnuItgvHd-122" style="edgeStyle=orthogonalEdgeStyle;rounded=0;orthogonalLoop=1;jettySize=auto;html=1;exitX=0.5;exitY=1;exitDx=0;exitDy=0;" edge="1" parent="1" source="_aBAqejh4AYmnuItgvHd-123" target="_aBAqejh4AYmnuItgvHd-126">
          <mxGeometry relative="1" as="geometry" />
        </mxCell>
        <mxCell id="_aBAqejh4AYmnuItgvHd-123" value="h=(b-a)/n" style="rounded=0;whiteSpace=wrap;html=1;" vertex="1" parent="1">
          <mxGeometry x="720" y="940" width="120" height="40" as="geometry" />
        </mxCell>
        <mxCell id="_aBAqejh4AYmnuItgvHd-124" style="edgeStyle=orthogonalEdgeStyle;rounded=0;orthogonalLoop=1;jettySize=auto;html=1;exitX=0.5;exitY=1;exitDx=0;exitDy=0;" edge="1" parent="1" source="_aBAqejh4AYmnuItgvHd-121" target="_aBAqejh4AYmnuItgvHd-121">
          <mxGeometry relative="1" as="geometry" />
        </mxCell>
        <mxCell id="_aBAqejh4AYmnuItgvHd-125" style="edgeStyle=orthogonalEdgeStyle;rounded=0;orthogonalLoop=1;jettySize=auto;html=1;exitX=1;exitY=0.5;exitDx=0;exitDy=0;entryX=1;entryY=0.5;entryDx=0;entryDy=0;" edge="1" parent="1" source="_aBAqejh4AYmnuItgvHd-126" target="_aBAqejh4AYmnuItgvHd-130">
          <mxGeometry relative="1" as="geometry" />
        </mxCell>
        <mxCell id="_aBAqejh4AYmnuItgvHd-126" value="x = a; x &amp;lt;= b ;x = x + h" style="shape=hexagon;perimeter=hexagonPerimeter2;whiteSpace=wrap;html=1;fixedSize=1;rounded=0;" vertex="1" parent="1">
          <mxGeometry x="710" y="1005" width="140" height="50" as="geometry" />
        </mxCell>
        <mxCell id="_aBAqejh4AYmnuItgvHd-127" style="edgeStyle=orthogonalEdgeStyle;rounded=0;orthogonalLoop=1;jettySize=auto;html=1;entryX=0;entryY=0.5;entryDx=0;entryDy=0;" edge="1" parent="1" source="_aBAqejh4AYmnuItgvHd-128" target="_aBAqejh4AYmnuItgvHd-126">
          <mxGeometry relative="1" as="geometry">
            <mxPoint x="650" y="1100" as="targetPoint" />
            <Array as="points">
              <mxPoint x="690" y="1100" />
              <mxPoint x="690" y="1030" />
            </Array>
          </mxGeometry>
        </mxCell>
        <mxCell id="_aBAqejh4AYmnuItgvHd-128" value="S=S+pow(x,3)" style="rounded=0;whiteSpace=wrap;html=1;" vertex="1" parent="1">
          <mxGeometry x="720" y="1080" width="120" height="40" as="geometry" />
        </mxCell>
        <mxCell id="_aBAqejh4AYmnuItgvHd-129" style="edgeStyle=orthogonalEdgeStyle;rounded=0;orthogonalLoop=1;jettySize=auto;html=1;exitX=0.5;exitY=1;exitDx=0;exitDy=0;" edge="1" parent="1" source="_aBAqejh4AYmnuItgvHd-130" target="_aBAqejh4AYmnuItgvHd-132">
          <mxGeometry relative="1" as="geometry" />
        </mxCell>
        <mxCell id="_aBAqejh4AYmnuItgvHd-130" value="S=S*h" style="rounded=0;whiteSpace=wrap;html=1;" vertex="1" parent="1">
          <mxGeometry x="720" y="1130" width="120" height="40" as="geometry" />
        </mxCell>
        <mxCell id="_aBAqejh4AYmnuItgvHd-131" style="edgeStyle=orthogonalEdgeStyle;rounded=0;orthogonalLoop=1;jettySize=auto;html=1;exitX=0.5;exitY=1;exitDx=0;exitDy=0;" edge="1" parent="1" source="_aBAqejh4AYmnuItgvHd-132" target="_aBAqejh4AYmnuItgvHd-134">
          <mxGeometry relative="1" as="geometry" />
        </mxCell>
        <mxCell id="_aBAqejh4AYmnuItgvHd-132" value="&lt;span&gt;printf(S)&lt;/span&gt;" style="rounded=0;whiteSpace=wrap;html=1;" vertex="1" parent="1">
          <mxGeometry x="720" y="1190" width="120" height="40" as="geometry" />
        </mxCell>
        <mxCell id="_aBAqejh4AYmnuItgvHd-133" style="edgeStyle=orthogonalEdgeStyle;rounded=0;orthogonalLoop=1;jettySize=auto;html=1;exitX=0.5;exitY=1;exitDx=0;exitDy=0;" edge="1" parent="1" source="_aBAqejh4AYmnuItgvHd-134" target="_aBAqejh4AYmnuItgvHd-136">
          <mxGeometry relative="1" as="geometry" />
        </mxCell>
        <mxCell id="_aBAqejh4AYmnuItgvHd-134" value="h = (b-a)/n" style="rounded=0;whiteSpace=wrap;html=1;" vertex="1" parent="1">
          <mxGeometry x="720" y="1250" width="120" height="40" as="geometry" />
        </mxCell>
        <mxCell id="_aBAqejh4AYmnuItgvHd-135" style="edgeStyle=orthogonalEdgeStyle;rounded=0;orthogonalLoop=1;jettySize=auto;html=1;exitX=0.5;exitY=1;exitDx=0;exitDy=0;" edge="1" parent="1" source="_aBAqejh4AYmnuItgvHd-136" target="_aBAqejh4AYmnuItgvHd-139">
          <mxGeometry relative="1" as="geometry" />
        </mxCell>
        <mxCell id="_aBAqejh4AYmnuItgvHd-136" value="S=pow(a,3)+pow(b,3)" style="rounded=0;whiteSpace=wrap;html=1;" vertex="1" parent="1">
          <mxGeometry x="720" y="1310" width="120" height="40" as="geometry" />
        </mxCell>
        <mxCell id="_aBAqejh4AYmnuItgvHd-137" style="edgeStyle=orthogonalEdgeStyle;rounded=0;orthogonalLoop=1;jettySize=auto;html=1;exitX=0.5;exitY=1;exitDx=0;exitDy=0;" edge="1" parent="1" source="_aBAqejh4AYmnuItgvHd-136" target="_aBAqejh4AYmnuItgvHd-136">
          <mxGeometry relative="1" as="geometry" />
        </mxCell>
        <mxCell id="_aBAqejh4AYmnuItgvHd-138" style="edgeStyle=orthogonalEdgeStyle;rounded=0;orthogonalLoop=1;jettySize=auto;html=1;exitX=1;exitY=0.5;exitDx=0;exitDy=0;entryX=1;entryY=0.5;entryDx=0;entryDy=0;" edge="1" parent="1" source="_aBAqejh4AYmnuItgvHd-139" target="_aBAqejh4AYmnuItgvHd-143">
          <mxGeometry relative="1" as="geometry" />
        </mxCell>
        <mxCell id="_aBAqejh4AYmnuItgvHd-139" value="x = a; x &amp;lt;= b ;x = x + h" style="shape=hexagon;perimeter=hexagonPerimeter2;whiteSpace=wrap;html=1;fixedSize=1;rounded=0;" vertex="1" parent="1">
          <mxGeometry x="710" y="1370" width="140" height="40" as="geometry" />
        </mxCell>
        <mxCell id="_aBAqejh4AYmnuItgvHd-140" style="edgeStyle=orthogonalEdgeStyle;rounded=0;orthogonalLoop=1;jettySize=auto;html=1;exitX=0;exitY=0.5;exitDx=0;exitDy=0;entryX=0;entryY=0.5;entryDx=0;entryDy=0;" edge="1" parent="1" source="_aBAqejh4AYmnuItgvHd-141" target="_aBAqejh4AYmnuItgvHd-139">
          <mxGeometry relative="1" as="geometry" />
        </mxCell>
        <mxCell id="_aBAqejh4AYmnuItgvHd-141" value="S=S+pow(x,3)" style="rounded=0;whiteSpace=wrap;html=1;" vertex="1" parent="1">
          <mxGeometry x="720" y="1430" width="120" height="30" as="geometry" />
        </mxCell>
        <mxCell id="_aBAqejh4AYmnuItgvHd-142" style="edgeStyle=orthogonalEdgeStyle;rounded=0;orthogonalLoop=1;jettySize=auto;html=1;exitX=0.5;exitY=1;exitDx=0;exitDy=0;entryX=0.5;entryY=0;entryDx=0;entryDy=0;" edge="1" parent="1" source="_aBAqejh4AYmnuItgvHd-143" target="_aBAqejh4AYmnuItgvHd-146">
          <mxGeometry relative="1" as="geometry" />
        </mxCell>
        <mxCell id="_aBAqejh4AYmnuItgvHd-143" value="S=S*h" style="rounded=0;whiteSpace=wrap;html=1;" vertex="1" parent="1">
          <mxGeometry x="720" y="1480" width="120" height="30" as="geometry" />
        </mxCell>
        <mxCell id="_aBAqejh4AYmnuItgvHd-144" style="edgeStyle=orthogonalEdgeStyle;rounded=0;orthogonalLoop=1;jettySize=auto;html=1;exitX=0.5;exitY=1;exitDx=0;exitDy=0;" edge="1" parent="1" source="_aBAqejh4AYmnuItgvHd-143" target="_aBAqejh4AYmnuItgvHd-143">
          <mxGeometry relative="1" as="geometry" />
        </mxCell>
        <mxCell id="_aBAqejh4AYmnuItgvHd-145" style="edgeStyle=orthogonalEdgeStyle;rounded=0;orthogonalLoop=1;jettySize=auto;html=1;exitX=0.5;exitY=1;exitDx=0;exitDy=0;entryX=0.5;entryY=0;entryDx=0;entryDy=0;" edge="1" parent="1" source="_aBAqejh4AYmnuItgvHd-146" target="_aBAqejh4AYmnuItgvHd-148">
          <mxGeometry relative="1" as="geometry" />
        </mxCell>
        <mxCell id="_aBAqejh4AYmnuItgvHd-146" value="&lt;span&gt;printf(S)&lt;/span&gt;" style="rounded=0;whiteSpace=wrap;html=1;" vertex="1" parent="1">
          <mxGeometry x="720" y="1530" width="120" height="40" as="geometry" />
        </mxCell>
        <mxCell id="_aBAqejh4AYmnuItgvHd-147" style="edgeStyle=orthogonalEdgeStyle;rounded=0;orthogonalLoop=1;jettySize=auto;html=1;exitX=0.5;exitY=1;exitDx=0;exitDy=0;entryX=0.5;entryY=0;entryDx=0;entryDy=0;" edge="1" parent="1" source="_aBAqejh4AYmnuItgvHd-148" target="_aBAqejh4AYmnuItgvHd-150">
          <mxGeometry relative="1" as="geometry" />
        </mxCell>
        <mxCell id="_aBAqejh4AYmnuItgvHd-148" value="h=((b-a)/n)" style="rounded=0;whiteSpace=wrap;html=1;" vertex="1" parent="1">
          <mxGeometry x="720" y="1590" width="120" height="40" as="geometry" />
        </mxCell>
        <mxCell id="_aBAqejh4AYmnuItgvHd-149" style="edgeStyle=orthogonalEdgeStyle;rounded=0;orthogonalLoop=1;jettySize=auto;html=1;exitX=1;exitY=0.5;exitDx=0;exitDy=0;" edge="1" parent="1" source="_aBAqejh4AYmnuItgvHd-150" target="_aBAqejh4AYmnuItgvHd-160">
          <mxGeometry relative="1" as="geometry">
            <mxPoint x="861" y="2025" as="targetPoint" />
            <Array as="points">
              <mxPoint x="910" y="1670" />
              <mxPoint x="910" y="2020" />
            </Array>
          </mxGeometry>
        </mxCell>
        <mxCell id="_aBAqejh4AYmnuItgvHd-150" value="i = 0; i &amp;lt;= n; i++" style="shape=hexagon;perimeter=hexagonPerimeter2;whiteSpace=wrap;html=1;fixedSize=1;rounded=0;" vertex="1" parent="1">
          <mxGeometry x="724" y="1650" width="120" height="40" as="geometry" />
        </mxCell>
        <mxCell id="_aBAqejh4AYmnuItgvHd-151" style="edgeStyle=orthogonalEdgeStyle;rounded=0;orthogonalLoop=1;jettySize=auto;html=1;exitX=0.5;exitY=1;exitDx=0;exitDy=0;entryX=0.5;entryY=0;entryDx=0;entryDy=0;" edge="1" parent="1" source="_aBAqejh4AYmnuItgvHd-152" target="_aBAqejh4AYmnuItgvHd-154">
          <mxGeometry relative="1" as="geometry" />
        </mxCell>
        <mxCell id="_aBAqejh4AYmnuItgvHd-152" value="&amp;nbsp;if(i%2 != 0)" style="rhombus;whiteSpace=wrap;html=1;rounded=0;" vertex="1" parent="1">
          <mxGeometry x="738.5" y="1700" width="96" height="60" as="geometry" />
        </mxCell>
        <mxCell id="_aBAqejh4AYmnuItgvHd-153" style="edgeStyle=orthogonalEdgeStyle;rounded=0;orthogonalLoop=1;jettySize=auto;html=1;exitX=0.5;exitY=1;exitDx=0;exitDy=0;entryX=0.5;entryY=0;entryDx=0;entryDy=0;" edge="1" parent="1" source="_aBAqejh4AYmnuItgvHd-154" target="_aBAqejh4AYmnuItgvHd-156">
          <mxGeometry relative="1" as="geometry" />
        </mxCell>
        <mxCell id="_aBAqejh4AYmnuItgvHd-154" value="S=S+pow(a+h*i,3)" style="rounded=0;whiteSpace=wrap;html=1;" vertex="1" parent="1">
          <mxGeometry x="729" y="1780" width="115" height="40" as="geometry" />
        </mxCell>
        <mxCell id="_aBAqejh4AYmnuItgvHd-155" style="edgeStyle=orthogonalEdgeStyle;rounded=0;orthogonalLoop=1;jettySize=auto;html=1;exitX=0.5;exitY=1;exitDx=0;exitDy=0;entryX=0.5;entryY=0;entryDx=0;entryDy=0;" edge="1" parent="1" source="_aBAqejh4AYmnuItgvHd-156" target="_aBAqejh4AYmnuItgvHd-158">
          <mxGeometry relative="1" as="geometry" />
        </mxCell>
        <mxCell id="_aBAqejh4AYmnuItgvHd-156" value="if(i%2 == 0)" style="rhombus;whiteSpace=wrap;html=1;rounded=0;" vertex="1" parent="1">
          <mxGeometry x="738.5" y="1840" width="96" height="60" as="geometry" />
        </mxCell>
        <mxCell id="_aBAqejh4AYmnuItgvHd-157" style="edgeStyle=orthogonalEdgeStyle;rounded=0;orthogonalLoop=1;jettySize=auto;html=1;exitX=0.5;exitY=1;exitDx=0;exitDy=0;entryX=0;entryY=0.5;entryDx=0;entryDy=0;" edge="1" parent="1" source="_aBAqejh4AYmnuItgvHd-158" target="_aBAqejh4AYmnuItgvHd-150">
          <mxGeometry relative="1" as="geometry">
            <Array as="points">
              <mxPoint x="787" y="1970" />
              <mxPoint x="710" y="1970" />
              <mxPoint x="710" y="1670" />
            </Array>
          </mxGeometry>
        </mxCell>
        <mxCell id="_aBAqejh4AYmnuItgvHd-158" value="SS=SS+pow(a+h*i,3)" style="rounded=0;whiteSpace=wrap;html=1;" vertex="1" parent="1">
          <mxGeometry x="729" y="1920" width="121" height="40" as="geometry" />
        </mxCell>
        <mxCell id="_aBAqejh4AYmnuItgvHd-159" style="edgeStyle=orthogonalEdgeStyle;rounded=0;orthogonalLoop=1;jettySize=auto;html=1;exitX=0.5;exitY=1;exitDx=0;exitDy=0;entryX=0.5;entryY=0;entryDx=0;entryDy=0;" edge="1" parent="1" source="_aBAqejh4AYmnuItgvHd-160" target="_aBAqejh4AYmnuItgvHd-161">
          <mxGeometry relative="1" as="geometry" />
        </mxCell>
        <mxCell id="_aBAqejh4AYmnuItgvHd-160" value="S=((b-a)/(3*n))*(pow(a,3)+4*S+2*SS+pow(b,3))" style="rounded=0;whiteSpace=wrap;html=1;" vertex="1" parent="1">
          <mxGeometry x="699.5" y="1990" width="180" height="60" as="geometry" />
        </mxCell>
        <mxCell id="_aBAqejh4AYmnuItgvHd-173" style="edgeStyle=orthogonalEdgeStyle;rounded=0;orthogonalLoop=1;jettySize=auto;html=1;exitX=0.5;exitY=1;exitDx=0;exitDy=0;entryX=0.5;entryY=0;entryDx=0;entryDy=0;" edge="1" parent="1" source="_aBAqejh4AYmnuItgvHd-161" target="_aBAqejh4AYmnuItgvHd-26">
          <mxGeometry relative="1" as="geometry" />
        </mxCell>
        <mxCell id="_aBAqejh4AYmnuItgvHd-161" value="&lt;span&gt;printf(S)&lt;/span&gt;" style="rounded=0;whiteSpace=wrap;html=1;" vertex="1" parent="1">
          <mxGeometry x="727" y="2070" width="120" height="40" as="geometry" />
        </mxCell>
      </root>
    </mxGraphModel>
  </diagram>
</mxfile>
